<svg width="396" height="426" viewBox="0 0 396 426" fill="none" xmlns="http://www.w3.org/2000/svg">
<path d="M3 423L17.1482 323.558C22.6458 300.921 41.2676 284.482 49.8912 279.092L145.695 224.521C162.188 210.938 160.382 187.062 157.418 176.821C145.776 169.383 136.397 145.425 133.164 134.376C121.522 130.496 116.994 114.434 116.186 106.888C113.922 88.1319 124.136 85.0597 129.526 85.8681C124.999 19.5736 173.183 3 197.842 3C222.5 3 270.685 19.5736 266.157 85.8681C271.547 85.0597 281.761 88.1319 279.497 106.888C278.689 114.434 274.162 130.496 262.52 134.376C259.286 145.425 249.907 169.383 238.265 176.821C235.301 187.062 233.495 210.938 249.988 224.521L345.792 279.092C354.416 284.482 373.037 300.921 378.535 323.558L392.683 423" stroke="#C2ACFF" stroke-opacity="0.5" stroke-width="5" stroke-linecap="round"/>
</svg>
