<svg width="167" height="19" viewBox="0 0 167 19" fill="none" xmlns="http://www.w3.org/2000/svg">
<path d="M16.1648 6.86932H11.9034C11.8466 6.43182 11.7301 6.03693 11.554 5.68466C11.3778 5.33238 11.1449 5.03125 10.8551 4.78125C10.5653 4.53125 10.2216 4.34091 9.82386 4.21023C9.43182 4.07386 8.99716 4.00568 8.51989 4.00568C7.6733 4.00568 6.94318 4.21307 6.32955 4.62784C5.72159 5.04261 5.25284 5.64204 4.9233 6.42613C4.59943 7.21023 4.4375 8.15909 4.4375 9.27273C4.4375 10.4318 4.60227 11.4034 4.93182 12.1875C5.26705 12.9659 5.7358 13.554 6.33807 13.9517C6.94602 14.3437 7.66477 14.5398 8.49432 14.5398C8.96023 14.5398 9.38352 14.4801 9.7642 14.3608C10.1506 14.2415 10.4886 14.0682 10.7784 13.8409C11.0739 13.608 11.3153 13.3267 11.5028 12.9972C11.696 12.6619 11.8295 12.2841 11.9034 11.8636L16.1648 11.8892C16.0909 12.6619 15.8665 13.4233 15.4915 14.1733C15.1222 14.9233 14.6136 15.608 13.9659 16.2273C13.3182 16.8409 12.5284 17.3295 11.5966 17.6932C10.6705 18.0568 9.60795 18.2386 8.40909 18.2386C6.82955 18.2386 5.41477 17.892 4.16477 17.1989C2.92045 16.5 1.9375 15.483 1.21591 14.1477C0.494317 12.8125 0.133522 11.1875 0.133522 9.27273C0.133522 7.35227 0.499999 5.72443 1.23295 4.3892C1.96591 3.05398 2.95739 2.03977 4.20739 1.34659C5.45739 0.653407 6.85795 0.306816 8.40909 0.306816C9.46591 0.306816 10.4432 0.454544 11.3409 0.749999C12.2386 1.03977 13.0284 1.46591 13.7102 2.02841C14.392 2.58523 14.946 3.26989 15.3722 4.08239C15.7983 4.89489 16.0625 5.82386 16.1648 6.86932Z" fill="#333333"/>
<path d="M18.2188 18V0.545453H22.4376V7.55113H29.3154V0.545453H33.5257V18H29.3154V10.9858H22.4376V18H18.2188Z" fill="#333333"/>
<path d="M39.5875 18H35.0534L40.9426 0.545453H46.5591L52.4483 18H47.9142L43.8148 4.94318H43.6784L39.5875 18ZM38.9824 11.1307H48.4597V14.3352H38.9824V11.1307Z" fill="#333333"/>
<path d="M58.1863 0.545453V18H53.9676V0.545453H58.1863Z" fill="#333333"/>
<path d="M60.4748 18V0.545453H67.685C68.9918 0.545453 70.1197 0.781248 71.0685 1.25284C72.0231 1.71875 72.7589 2.3892 73.2759 3.2642C73.793 4.13352 74.0515 5.16477 74.0515 6.35795C74.0515 7.56818 73.7873 8.59659 73.2589 9.44318C72.7305 10.2841 71.9805 10.9261 71.0089 11.3693C70.0373 11.8068 68.8867 12.0256 67.5572 12.0256H62.9975V8.7017H66.7731C67.4094 8.7017 67.9407 8.61932 68.3668 8.45454C68.7986 8.28409 69.1253 8.02841 69.3469 7.6875C69.5685 7.34091 69.6793 6.89773 69.6793 6.35795C69.6793 5.81818 69.5685 5.37216 69.3469 5.01989C69.1253 4.66193 68.7986 4.39488 68.3668 4.21875C67.935 4.03693 67.4038 3.94602 66.7731 3.94602H64.6935V18H60.4748ZM70.3015 10.0227L74.6481 18H70.0458L65.7844 10.0227H70.3015Z" fill="#333333"/>
<path d="M96.6454 6.86932H92.384C92.3272 6.43182 92.2107 6.03693 92.0346 5.68466C91.8585 5.33238 91.6255 5.03125 91.3357 4.78125C91.046 4.53125 90.7022 4.34091 90.3045 4.21023C89.9124 4.07386 89.4778 4.00568 89.0005 4.00568C88.1539 4.00568 87.4238 4.21307 86.8102 4.62784C86.2022 5.04261 85.7335 5.64204 85.4039 6.42613C85.0801 7.21023 84.9181 8.15909 84.9181 9.27273C84.9181 10.4318 85.0829 11.4034 85.4124 12.1875C85.7477 12.9659 86.2164 13.554 86.8187 13.9517C87.4266 14.3437 88.1454 14.5398 88.9749 14.5398C89.4408 14.5398 89.8641 14.4801 90.2448 14.3608C90.6312 14.2415 90.9693 14.0682 91.259 13.8409C91.5545 13.608 91.796 13.3267 91.9835 12.9972C92.1766 12.6619 92.3102 12.2841 92.384 11.8636L96.6454 11.8892C96.5715 12.6619 96.3471 13.4233 95.9721 14.1733C95.6028 14.9233 95.0943 15.608 94.4465 16.2273C93.7988 16.8409 93.009 17.3295 92.0772 17.6932C91.1511 18.0568 90.0886 18.2386 88.8897 18.2386C87.3102 18.2386 85.8954 17.892 84.6454 17.1989C83.4011 16.5 82.4181 15.483 81.6965 14.1477C80.9749 12.8125 80.6141 11.1875 80.6141 9.27273C80.6141 7.35227 80.9806 5.72443 81.7136 4.3892C82.4465 3.05398 83.438 2.03977 84.688 1.34659C85.938 0.653407 87.3386 0.306816 88.8897 0.306816C89.9465 0.306816 90.9238 0.454544 91.8215 0.749999C92.7193 1.03977 93.509 1.46591 94.1908 2.02841C94.8727 2.58523 95.4266 3.26989 95.8528 4.08239C96.2789 4.89489 96.5431 5.82386 96.6454 6.86932Z" fill="#333333"/>
<path d="M115.174 9.27273C115.174 11.1932 114.805 12.821 114.066 14.1562C113.327 15.4915 112.327 16.5057 111.066 17.1989C109.81 17.892 108.401 18.2386 106.839 18.2386C105.27 18.2386 103.859 17.8892 102.603 17.1903C101.347 16.4915 100.35 15.4773 99.6114 14.1477C98.8784 12.8125 98.512 11.1875 98.512 9.27273C98.512 7.35227 98.8784 5.72443 99.6114 4.3892C100.35 3.05398 101.347 2.03977 102.603 1.34659C103.859 0.653407 105.27 0.306816 106.839 0.306816C108.401 0.306816 109.81 0.653407 111.066 1.34659C112.327 2.03977 113.327 3.05398 114.066 4.3892C114.805 5.72443 115.174 7.35227 115.174 9.27273ZM110.861 9.27273C110.861 8.13636 110.699 7.17614 110.376 6.39204C110.057 5.60795 109.597 5.0142 108.995 4.61079C108.398 4.20738 107.68 4.00568 106.839 4.00568C106.003 4.00568 105.285 4.20738 104.682 4.61079C104.08 5.0142 103.617 5.60795 103.293 6.39204C102.975 7.17614 102.816 8.13636 102.816 9.27273C102.816 10.4091 102.975 11.3693 103.293 12.1534C103.617 12.9375 104.08 13.5312 104.682 13.9347C105.285 14.3381 106.003 14.5398 106.839 14.5398C107.68 14.5398 108.398 14.3381 108.995 13.9347C109.597 13.5312 110.057 12.9375 110.376 12.1534C110.699 11.3693 110.861 10.4091 110.861 9.27273Z" fill="#333333"/>
<path d="M120.021 18H115.487L121.376 0.545453H126.993L132.882 18H128.348L124.249 4.94318H124.112L120.021 18ZM119.416 11.1307H128.893V14.3352H119.416V11.1307Z" fill="#333333"/>
<path d="M149.425 6.86932H145.163C145.107 6.43182 144.99 6.03693 144.814 5.68466C144.638 5.33238 144.405 5.03125 144.115 4.78125C143.825 4.53125 143.482 4.34091 143.084 4.21023C142.692 4.07386 142.257 4.00568 141.78 4.00568C140.933 4.00568 140.203 4.21307 139.59 4.62784C138.982 5.04261 138.513 5.64204 138.183 6.42613C137.859 7.21023 137.697 8.15909 137.697 9.27273C137.697 10.4318 137.862 11.4034 138.192 12.1875C138.527 12.9659 138.996 13.554 139.598 13.9517C140.206 14.3437 140.925 14.5398 141.754 14.5398C142.22 14.5398 142.644 14.4801 143.024 14.3608C143.411 14.2415 143.749 14.0682 144.038 13.8409C144.334 13.608 144.575 13.3267 144.763 12.9972C144.956 12.6619 145.09 12.2841 145.163 11.8636L149.425 11.8892C149.351 12.6619 149.126 13.4233 148.751 14.1733C148.382 14.9233 147.874 15.608 147.226 16.2273C146.578 16.8409 145.788 17.3295 144.857 17.6932C143.93 18.0568 142.868 18.2386 141.669 18.2386C140.09 18.2386 138.675 17.892 137.425 17.1989C136.18 16.5 135.197 15.483 134.476 14.1477C133.754 12.8125 133.394 11.1875 133.394 9.27273C133.394 7.35227 133.76 5.72443 134.493 4.3892C135.226 3.05398 136.217 2.03977 137.467 1.34659C138.717 0.653407 140.118 0.306816 141.669 0.306816C142.726 0.306816 143.703 0.454544 144.601 0.749999C145.499 1.03977 146.288 1.46591 146.97 2.02841C147.652 2.58523 148.206 3.26989 148.632 4.08239C149.058 4.89489 149.322 5.82386 149.425 6.86932Z" fill="#333333"/>
<path d="M151.479 18V0.545453H155.698V7.55113H162.575V0.545453H166.786V18H162.575V10.9858H155.698V18H151.479Z" fill="#333333"/>
</svg>
